<mxfile host="65bd71144e">
    <diagram id="VcY1fCqw4_e-9c5kD9-8" name="第 1 页">
        <mxGraphModel dx="625" dy="370" grid="0" gridSize="10" guides="1" tooltips="1" connect="1" arrows="1" fold="1" page="0" pageScale="1" pageWidth="4681" pageHeight="3300" math="0" shadow="0">
            <root>
                <mxCell id="0"/>
                <mxCell id="1" parent="0"/>
                <mxCell id="2" value="" style="rounded=1;whiteSpace=wrap;html=1;fillColor=#dae8fc;strokeColor=#6c8ebf;" vertex="1" parent="1">
                    <mxGeometry x="200" y="140" width="438" height="278" as="geometry"/>
                </mxCell>
                <mxCell id="3" value="&lt;font style=&quot;font-size: 20px;&quot;&gt;网络接口&lt;/font&gt;" style="text;html=1;strokeColor=none;fillColor=none;align=center;verticalAlign=middle;whiteSpace=wrap;rounded=0;" vertex="1" parent="1">
                    <mxGeometry x="370" y="158" width="98" height="33" as="geometry"/>
                </mxCell>
                <mxCell id="4" value="CSMA/CD" style="rounded=1;whiteSpace=wrap;html=1;fontSize=20;fillColor=#d5e8d4;strokeColor=#82b366;" vertex="1" parent="1">
                    <mxGeometry x="225" y="202" width="120" height="60" as="geometry"/>
                </mxCell>
                <mxCell id="5" value="MAC" style="rounded=1;whiteSpace=wrap;html=1;fontSize=20;fillColor=#ffe6cc;strokeColor=#d79b00;" vertex="1" parent="1">
                    <mxGeometry x="497" y="175" width="120" height="60" as="geometry"/>
                </mxCell>
                <mxCell id="6" value="多路访问" style="rounded=1;whiteSpace=wrap;html=1;fontSize=20;fillColor=#bac8d3;strokeColor=#23445d;" vertex="1" parent="1">
                    <mxGeometry x="279" y="299" width="120" height="60" as="geometry"/>
                </mxCell>
                <mxCell id="7" value="以太网" style="rounded=1;whiteSpace=wrap;html=1;fontSize=20;fillColor=#e1d5e7;strokeColor=#9673a6;" vertex="1" parent="1">
                    <mxGeometry x="424" y="338" width="120" height="60" as="geometry"/>
                </mxCell>
                <mxCell id="8" value="差错检测" style="rounded=1;whiteSpace=wrap;html=1;fontSize=20;fillColor=#f8cecc;strokeColor=#b85450;" vertex="1" parent="1">
                    <mxGeometry x="461" y="253" width="120" height="60" as="geometry"/>
                </mxCell>
            </root>
        </mxGraphModel>
    </diagram>
</mxfile>